<mxfile host="app.diagrams.net" modified="2023-12-06T18:55:12.420Z" agent="Mozilla/5.0 (Windows NT 10.0; Win64; x64; rv:120.0) Gecko/20100101 Firefox/120.0" version="22.1.7" etag="d5vSJ7j3VayWPBlS-tzw" type="github">
  <diagram name="Page-1" id="jJNK4QmtB8DSVovvVrnr">
    <mxGraphModel>
      <root>
        <mxCell id="0" />
        <mxCell id="1" parent="0" />
      </root>
    </mxGraphModel>
  </diagram>
</mxfile>
